{
    "asset" : {
        "generator" : "Khronos glTF Blender I/O v1.8.19",
        "version" : "2.0"
    },
    "scene" : 0,
    "scenes" : [
        {
            "name" : "Scene",
            "nodes" : [
                0
            ]
        }
    ],
    "nodes" : [
        {
            "mesh" : 0,
            "name" : "TV 02"
        }
    ],
    "materials" : [
        {
            "doubleSided" : true,
            "name" : "Black",
            "pbrMetallicRoughness" : {
                "baseColorFactor" : [
                    0.0010314261307939887,
                    0.0010314261307939887,
                    0.0010314261307939887,
                    1
                ],
                "metallicFactor" : 0
            }
        },
        {
            "doubleSided" : true,
            "emissiveFactor" : [
                1,
                0,
                0
            ],
            "name" : "RedLight",
            "pbrMetallicRoughness" : {
                "baseColorFactor" : [
                    0,
                    0,
                    0,
                    1
                ],
                "metallicFactor" : 0,
                "roughnessFactor" : 0.5
            }
        },
        {
            "doubleSided" : true,
            "name" : "Screen1",
            "pbrMetallicRoughness" : {
                "baseColorFactor" : [
                    0,
                    0,
                    0,
                    1
                ],
                "metallicFactor" : 0,
                "roughnessFactor" : 0.25
            }
        }
    ],
    "meshes" : [
        {
            "name" : "Plane.001",
            "primitives" : [
                {
                    "attributes" : {
                        "POSITION" : 0,
                        "NORMAL" : 1,
                        "TEXCOORD_0" : 2
                    },
                    "indices" : 3,
                    "material" : 0
                },
                {
                    "attributes" : {
                        "POSITION" : 4,
                        "NORMAL" : 5,
                        "TEXCOORD_0" : 6
                    },
                    "indices" : 7,
                    "material" : 1
                },
                {
                    "attributes" : {
                        "POSITION" : 8,
                        "NORMAL" : 9,
                        "TEXCOORD_0" : 10
                    },
                    "indices" : 11,
                    "material" : 2
                }
            ]
        }
    ],
    "accessors" : [
        {
            "bufferView" : 0,
            "componentType" : 5126,
            "count" : 398,
            "max" : [
                -1.665784478187561,
                2.5276219844818115,
                0.8613643646240234
            ],
            "min" : [
                -1.7752478122711182,
                1.3865606784820557,
                -1.0715503692626953
            ],
            "type" : "VEC3"
        },
        {
            "bufferView" : 1,
            "componentType" : 5126,
            "count" : 398,
            "type" : "VEC3"
        },
        {
            "bufferView" : 2,
            "componentType" : 5126,
            "count" : 398,
            "type" : "VEC2"
        },
        {
            "bufferView" : 3,
            "componentType" : 5123,
            "count" : 540,
            "type" : "SCALAR"
        },
        {
            "bufferView" : 4,
            "componentType" : 5126,
            "count" : 4,
            "max" : [
                -1.6661744117736816,
                1.3937231302261353,
                -0.07418525218963623
            ],
            "min" : [
                -1.6661744117736816,
                1.3883236646652222,
                -0.13600099086761475
            ],
            "type" : "VEC3"
        },
        {
            "bufferView" : 5,
            "componentType" : 5126,
            "count" : 4,
            "type" : "VEC3"
        },
        {
            "bufferView" : 6,
            "componentType" : 5126,
            "count" : 4,
            "type" : "VEC2"
        },
        {
            "bufferView" : 7,
            "componentType" : 5123,
            "count" : 6,
            "type" : "SCALAR"
        },
        {
            "bufferView" : 8,
            "componentType" : 5126,
            "count" : 6,
            "max" : [
                -1.6675102710723877,
                2.510363817214966,
                0.8441064357757568
            ],
            "min" : [
                -1.6675102710723877,
                1.4230990409851074,
                -1.0542919635772705
            ],
            "type" : "VEC3"
        },
        {
            "bufferView" : 9,
            "componentType" : 5126,
            "count" : 6,
            "type" : "VEC3"
        },
        {
            "bufferView" : 10,
            "componentType" : 5126,
            "count" : 6,
            "type" : "VEC2"
        },
        {
            "bufferView" : 11,
            "componentType" : 5123,
            "count" : 6,
            "type" : "SCALAR"
        }
    ],
    "bufferViews" : [
        {
            "buffer" : 0,
            "byteLength" : 4776,
            "byteOffset" : 0
        },
        {
            "buffer" : 0,
            "byteLength" : 4776,
            "byteOffset" : 4776
        },
        {
            "buffer" : 0,
            "byteLength" : 3184,
            "byteOffset" : 9552
        },
        {
            "buffer" : 0,
            "byteLength" : 1080,
            "byteOffset" : 12736
        },
        {
            "buffer" : 0,
            "byteLength" : 48,
            "byteOffset" : 13816
        },
        {
            "buffer" : 0,
            "byteLength" : 48,
            "byteOffset" : 13864
        },
        {
            "buffer" : 0,
            "byteLength" : 32,
            "byteOffset" : 13912
        },
        {
            "buffer" : 0,
            "byteLength" : 12,
            "byteOffset" : 13944
        },
        {
            "buffer" : 0,
            "byteLength" : 72,
            "byteOffset" : 13956
        },
        {
            "buffer" : 0,
            "byteLength" : 72,
            "byteOffset" : 14028
        },
        {
            "buffer" : 0,
            "byteLength" : 48,
            "byteOffset" : 14100
        },
        {
            "buffer" : 0,
            "byteLength" : 12,
            "byteOffset" : 14148
        }
    ],
    "buffers" : [
        {
            "byteLength" : 14160,
            "uri" : "data:application/octet-stream;base64,"
        }
    ]
}
