{
    "asset" : {
        "generator" : "Khronos glTF Blender I/O v1.8.19",
        "version" : "2.0"
    },
    "scene" : 0,
    "scenes" : [
        {
            "name" : "Scene",
            "nodes" : [
                0
            ]
        }
    ],
    "nodes" : [
        {
            "mesh" : 0,
            "name" : "Camera",
            "translation" : [
                -1.5552204847335815,
                0.9766335487365723,
                0
            ]
        }
    ],
    "materials" : [
        {
            "doubleSided" : true,
            "name" : "Speaker.001",
            "pbrMetallicRoughness" : {
                "baseColorFactor" : [
                    0.01838410459458828,
                    0.01838410459458828,
                    0.01838410459458828,
                    1
                ],
                "metallicFactor" : 0,
                "roughnessFactor" : 0.25090909004211426
            }
        },
        {
            "doubleSided" : true,
            "name" : "Speaker",
            "pbrMetallicRoughness" : {
                "baseColorFactor" : [
                    0.02061614952981472,
                    0.02061614952981472,
                    0.02061614952981472,
                    1
                ],
                "metallicFactor" : 0,
                "roughnessFactor" : 0.5
            }
        },
        {
            "doubleSided" : true,
            "name" : "speaker",
            "pbrMetallicRoughness" : {
                "baseColorFactor" : [
                    0.010903296992182732,
                    0.010903296992182732,
                    0.010903296992182732,
                    1
                ],
                "metallicFactor" : 0,
                "roughnessFactor" : 0.25090909004211426
            }
        }
    ],
    "meshes" : [
        {
            "name" : "Cube",
            "primitives" : [
                {
                    "attributes" : {
                        "POSITION" : 0,
                        "NORMAL" : 1,
                        "TEXCOORD_0" : 2
                    },
                    "indices" : 3,
                    "material" : 0
                },
                {
                    "attributes" : {
                        "POSITION" : 4,
                        "NORMAL" : 5,
                        "TEXCOORD_0" : 6
                    },
                    "indices" : 7,
                    "material" : 1
                },
                {
                    "attributes" : {
                        "POSITION" : 8,
                        "NORMAL" : 9,
                        "TEXCOORD_0" : 10
                    },
                    "indices" : 11,
                    "material" : 2
                }
            ]
        }
    ],
    "accessors" : [
        {
            "bufferView" : 0,
            "componentType" : 5126,
            "count" : 626,
            "max" : [
                0.02636873722076416,
                0.03668487071990967,
                0.2300865650177002
            ],
            "min" : [
                -0.04744088649749756,
                -0.037124574184417725,
                -0.2300870418548584
            ],
            "type" : "VEC3"
        },
        {
            "bufferView" : 1,
            "componentType" : 5126,
            "count" : 626,
            "type" : "VEC3"
        },
        {
            "bufferView" : 2,
            "componentType" : 5126,
            "count" : 626,
            "type" : "VEC2"
        },
        {
            "bufferView" : 3,
            "componentType" : 5123,
            "count" : 2214,
            "type" : "SCALAR"
        },
        {
            "bufferView" : 4,
            "componentType" : 5126,
            "count" : 44,
            "max" : [
                0.02636873722076416,
                0.03191494941711426,
                0.22531664371490479
            ],
            "min" : [
                0.02636861801147461,
                -0.032354652881622314,
                -0.225317120552063
            ],
            "type" : "VEC3"
        },
        {
            "bufferView" : 5,
            "componentType" : 5126,
            "count" : 44,
            "type" : "VEC3"
        },
        {
            "bufferView" : 6,
            "componentType" : 5126,
            "count" : 44,
            "type" : "VEC2"
        },
        {
            "bufferView" : 7,
            "componentType" : 5123,
            "count" : 132,
            "type" : "SCALAR"
        },
        {
            "bufferView" : 8,
            "componentType" : 5126,
            "count" : 236,
            "max" : [
                0.025415897369384766,
                0.04771780967712402,
                0.0776452124118805
            ],
            "min" : [
                -0.056177377700805664,
                -0.09066075086593628,
                -0.07764570415019989
            ],
            "type" : "VEC3"
        },
        {
            "bufferView" : 9,
            "componentType" : 5126,
            "count" : 236,
            "type" : "VEC3"
        },
        {
            "bufferView" : 10,
            "componentType" : 5126,
            "count" : 236,
            "type" : "VEC2"
        },
        {
            "bufferView" : 11,
            "componentType" : 5123,
            "count" : 612,
            "type" : "SCALAR"
        }
    ],
    "bufferViews" : [
        {
            "buffer" : 0,
            "byteLength" : 7512,
            "byteOffset" : 0
        },
        {
            "buffer" : 0,
            "byteLength" : 7512,
            "byteOffset" : 7512
        },
        {
            "buffer" : 0,
            "byteLength" : 5008,
            "byteOffset" : 15024
        },
        {
            "buffer" : 0,
            "byteLength" : 4428,
            "byteOffset" : 20032
        },
        {
            "buffer" : 0,
            "byteLength" : 528,
            "byteOffset" : 24460
        },
        {
            "buffer" : 0,
            "byteLength" : 528,
            "byteOffset" : 24988
        },
        {
            "buffer" : 0,
            "byteLength" : 352,
            "byteOffset" : 25516
        },
        {
            "buffer" : 0,
            "byteLength" : 264,
            "byteOffset" : 25868
        },
        {
            "buffer" : 0,
            "byteLength" : 2832,
            "byteOffset" : 26132
        },
        {
            "buffer" : 0,
            "byteLength" : 2832,
            "byteOffset" : 28964
        },
        {
            "buffer" : 0,
            "byteLength" : 1888,
            "byteOffset" : 31796
        },
        {
            "buffer" : 0,
            "byteLength" : 1224,
            "byteOffset" : 33684
        }
    ],
    "buffers" : [
        {
            "byteLength" : 34908,
            "uri" : "data:application/octet-stream;base64,"
        }
    ]
}
